<svg xmlns="http://www.w3.org/2000/svg" width="58" height="19" fill="none"><path fill="#000" stroke="#000" stroke-width=".035" d="M5.524 18.397h51.459v-2.455H5.523a2.509 2.509 0 0 1-2.505-2.506 2.506 2.506 0 0 1 2.506-2.504h7.447V8.478H5.524a2.509 2.509 0 0 1-2.506-2.506 2.509 2.509 0 0 1 2.506-2.507h7.447v-2.45H5.524a4.963 4.963 0 0 0-4.96 4.957c0 1.489.673 2.808 1.714 3.718l.016.014-.016.013c-1.041.91-1.714 2.233-1.714 3.719a4.966 4.966 0 0 0 4.96 4.96Z"/><mask id="a" width="42" height="15" x="14.727" y="-.594" fill="#000" maskUnits="userSpaceOnUse"><path fill="#fff" d="M14.727-.594h42v15h-42z"/><path d="M20.262 13.609c-.94 0-1.76-.216-2.461-.647a4.357 4.357 0 0 1-1.632-1.808c-.387-.774-.58-1.68-.58-2.715 0-1.04.193-1.95.58-2.728.387-.78.931-1.384 1.632-1.815.7-.43 1.52-.646 2.46-.646s1.76.216 2.461.646a4.353 4.353 0 0 1 1.632 1.815c.387.779.58 1.688.58 2.728 0 1.036-.193 1.94-.58 2.715a4.357 4.357 0 0 1-1.632 1.808c-.7.431-1.52.647-2.46.647Zm.006-1.639c.61 0 1.114-.16 1.514-.483.4-.322.697-.75.888-1.286a5.115 5.115 0 0 0 .294-1.768c0-.64-.098-1.227-.294-1.763-.192-.54-.487-.972-.888-1.299-.4-.326-.905-.49-1.514-.49-.614 0-1.123.164-1.527.49-.4.327-.699.76-.895 1.3a5.198 5.198 0 0 0-.287 1.762c0 .644.096 1.233.287 1.768.196.536.494.964.895 1.286.404.322.913.483 1.527.483Zm11.068 1.639c-.94 0-1.76-.216-2.46-.647a4.357 4.357 0 0 1-1.632-1.808c-.387-.774-.581-1.68-.581-2.715 0-1.04.194-1.95.58-2.728.388-.78.932-1.384 1.633-1.815.7-.43 1.52-.646 2.46-.646s1.76.216 2.461.646a4.353 4.353 0 0 1 1.632 1.815c.387.779.58 1.688.58 2.728 0 1.036-.193 1.94-.58 2.715a4.357 4.357 0 0 1-1.632 1.808c-.7.431-1.52.647-2.46.647Zm.007-1.639c.609 0 1.114-.16 1.514-.483.4-.322.696-.75.888-1.286a5.115 5.115 0 0 0 .294-1.768c0-.64-.098-1.227-.294-1.763-.192-.54-.488-.972-.888-1.299-.4-.326-.905-.49-1.514-.49-.614 0-1.123.164-1.527.49-.4.327-.699.76-.895 1.3a5.198 5.198 0 0 0-.287 1.762c0 .644.096 1.233.287 1.768.196.536.494.964.895 1.286.404.322.913.483 1.527.483Zm8.64-1.964-.013-2.383h.34l3.994-4.242h2.337l-4.556 4.83h-.307l-1.795 1.795Zm-1.795 3.4V.04h1.952v13.367h-1.952Zm6.331 0-3.59-4.764 1.345-1.365 4.64 6.13H44.52Zm11.413-7.578-1.769.314a2.093 2.093 0 0 0-.352-.647 1.744 1.744 0 0 0-.64-.502c-.27-.13-.607-.196-1.012-.196-.552 0-1.014.124-1.383.372-.37.244-.555.56-.555.947 0 .335.124.604.372.809.248.204.648.372 1.2.502l1.593.366c.923.213 1.61.542 2.063.986.452.443.679 1.02.679 1.73 0 .6-.174 1.135-.523 1.605-.343.465-.824.831-1.442 1.096-.613.266-1.325.399-2.134.399-1.123 0-2.039-.24-2.748-.718-.71-.483-1.145-1.169-1.306-2.056l1.887-.288c.117.492.359.864.724 1.117.366.248.842.372 1.43.372.64 0 1.15-.133 1.534-.399.382-.27.574-.598.574-.985 0-.313-.118-.577-.353-.79-.23-.213-.585-.374-1.063-.483l-1.697-.372c-.936-.213-1.628-.553-2.076-1.018-.444-.466-.666-1.055-.666-1.769 0-.592.166-1.11.496-1.553.33-.444.788-.79 1.37-1.038.584-.253 1.252-.379 2.005-.379 1.083 0 1.936.235 2.558.705.623.466 1.034 1.09 1.234 1.873Z"/></mask><path fill="#000" d="M20.262 13.609c-.94 0-1.76-.216-2.461-.647a4.357 4.357 0 0 1-1.632-1.808c-.387-.774-.58-1.68-.58-2.715 0-1.04.193-1.95.58-2.728.387-.78.931-1.384 1.632-1.815.7-.43 1.52-.646 2.46-.646s1.76.216 2.461.646a4.353 4.353 0 0 1 1.632 1.815c.387.779.58 1.688.58 2.728 0 1.036-.193 1.94-.58 2.715a4.357 4.357 0 0 1-1.632 1.808c-.7.431-1.52.647-2.46.647Zm.006-1.639c.61 0 1.114-.16 1.514-.483.4-.322.697-.75.888-1.286a5.115 5.115 0 0 0 .294-1.768c0-.64-.098-1.227-.294-1.763-.192-.54-.487-.972-.888-1.299-.4-.326-.905-.49-1.514-.49-.614 0-1.123.164-1.527.49-.4.327-.699.76-.895 1.3a5.198 5.198 0 0 0-.287 1.762c0 .644.096 1.233.287 1.768.196.536.494.964.895 1.286.404.322.913.483 1.527.483Zm11.068 1.639c-.94 0-1.76-.216-2.46-.647a4.357 4.357 0 0 1-1.632-1.808c-.387-.774-.581-1.68-.581-2.715 0-1.04.194-1.95.58-2.728.388-.78.932-1.384 1.633-1.815.7-.43 1.52-.646 2.46-.646s1.76.216 2.461.646a4.353 4.353 0 0 1 1.632 1.815c.387.779.58 1.688.58 2.728 0 1.036-.193 1.94-.58 2.715a4.357 4.357 0 0 1-1.632 1.808c-.7.431-1.52.647-2.46.647Zm.007-1.639c.609 0 1.114-.16 1.514-.483.4-.322.696-.75.888-1.286a5.115 5.115 0 0 0 .294-1.768c0-.64-.098-1.227-.294-1.763-.192-.54-.488-.972-.888-1.299-.4-.326-.905-.49-1.514-.49-.614 0-1.123.164-1.527.49-.4.327-.699.76-.895 1.3a5.198 5.198 0 0 0-.287 1.762c0 .644.096 1.233.287 1.768.196.536.494.964.895 1.286.404.322.913.483 1.527.483Zm8.64-1.964-.013-2.383h.34l3.994-4.242h2.337l-4.556 4.83h-.307l-1.795 1.795Zm-1.795 3.4V.04h1.952v13.367h-1.952Zm6.331 0-3.59-4.764 1.345-1.365 4.64 6.13H44.52Zm11.413-7.578-1.769.314a2.093 2.093 0 0 0-.352-.647 1.744 1.744 0 0 0-.64-.502c-.27-.13-.607-.196-1.012-.196-.552 0-1.014.124-1.383.372-.37.244-.555.56-.555.947 0 .335.124.604.372.809.248.204.648.372 1.2.502l1.593.366c.923.213 1.61.542 2.063.986.452.443.679 1.02.679 1.73 0 .6-.174 1.135-.523 1.605-.343.465-.824.831-1.442 1.096-.613.266-1.325.399-2.134.399-1.123 0-2.039-.24-2.748-.718-.71-.483-1.145-1.169-1.306-2.056l1.887-.288c.117.492.359.864.724 1.117.366.248.842.372 1.43.372.64 0 1.15-.133 1.534-.399.382-.27.574-.598.574-.985 0-.313-.118-.577-.353-.79-.23-.213-.585-.374-1.063-.483l-1.697-.372c-.936-.213-1.628-.553-2.076-1.018-.444-.466-.666-1.055-.666-1.769 0-.592.166-1.11.496-1.553.33-.444.788-.79 1.37-1.038.584-.253 1.252-.379 2.005-.379 1.083 0 1.936.235 2.558.705.623.466 1.034 1.09 1.234 1.873Z"/><path fill="#000" d="m16.169 11.154.235-.117-.235.117Zm1.632-7.258.137.224-.137-.224Zm4.921 0-.137.224.137-.224Zm1.632 7.258-.235-.117.235.117Zm-1.632 1.808.138.224-.138-.224Zm-.94-1.475-.164-.204.164.204Zm.888-1.286-.247-.09v.002l.247.088Zm0-3.53-.248.087.001.003.247-.09Zm-.888-1.3-.166.204.166-.204Zm-3.041 0-.165-.204h-.001l.166.204Zm-.895 1.3-.246-.09.246.09Zm0 3.53-.247.089v.002l.247-.09Zm.895 1.286-.165.205h.001l.164-.205Zm1.52 1.859c-.898 0-1.67-.205-2.323-.607l-.275.447c.748.46 1.617.685 2.599.685v-.525Zm-2.323-.607a4.094 4.094 0 0 1-1.534-1.702l-.47.235a4.618 4.618 0 0 0 1.73 1.914l.274-.447Zm-1.534-1.702c-.366-.732-.553-1.595-.553-2.598h-.525c0 1.069.2 2.015.608 2.833l.47-.235Zm-.553-2.598c0-1.007.187-1.875.553-2.611l-.47-.234c-.409.822-.608 1.772-.608 2.845h.525Zm.553-2.611c.367-.738.878-1.304 1.534-1.708l-.275-.447c-.745.458-1.321 1.1-1.73 1.921l.471.234Zm1.534-1.708c.654-.402 1.425-.607 2.324-.607v-.525c-.982 0-1.851.225-2.599.685l.275.447Zm2.324-.607c.898 0 1.67.205 2.323.607l.275-.447c-.748-.46-1.617-.685-2.598-.685v.525Zm2.323.607c.656.404 1.167.97 1.534 1.708l.47-.234c-.408-.82-.984-1.463-1.73-1.921l-.274.447Zm1.534 1.708c.366.736.553 1.604.553 2.611h.526c0-1.073-.2-2.023-.609-2.845l-.47.234Zm.553 2.611c0 1.003-.187 1.866-.553 2.598l.47.235c.409-.818.609-1.764.609-2.833h-.526Zm-.553 2.598a4.094 4.094 0 0 1-1.534 1.702l.275.447a4.618 4.618 0 0 0 1.729-1.914l-.47-.235Zm-1.534 1.702c-.654.402-1.425.607-2.323.607v.525c.98 0 1.85-.225 2.598-.685l-.275-.447Zm-2.317-.506c.657 0 1.224-.175 1.679-.541l-.33-.41c-.345.278-.788.426-1.349.426v.525Zm1.679-.541c.442-.356.764-.826.97-1.402l-.494-.177c-.177.495-.447.881-.805 1.17l.329.409Zm.97-1.4c.207-.568.31-1.189.31-1.86H22.7a4.85 4.85 0 0 1-.278 1.68l.494.18Zm.31-1.86c0-.666-.103-1.284-.31-1.852l-.494.18a4.84 4.84 0 0 1 .278 1.673h.525Zm-.31-1.85c-.205-.58-.527-1.054-.969-1.414l-.332.407c.36.293.63.684.806 1.183l.495-.175Zm-.969-1.414c-.455-.371-1.022-.549-1.68-.549v.525c.56 0 1.003.15 1.348.431l.332-.407Zm-1.68-.549c-.662 0-1.233.178-1.692.548l.33.409c.35-.282.797-.432 1.362-.432V4.62Zm-1.693.549c-.441.36-.765.834-.975 1.413l.493.179c.182-.5.454-.892.814-1.185l-.332-.407Zm-.976 1.414a5.46 5.46 0 0 0-.302 1.85h.525c0-.613.092-1.17.272-1.673l-.495-.177Zm-.302 1.85c0 .67.1 1.29.302 1.858l.495-.177a4.958 4.958 0 0 1-.272-1.68h-.525Zm.303 1.86c.21.575.535 1.045.976 1.4l.33-.41c-.36-.288-.632-.675-.813-1.17l-.493.18Zm.977 1.4c.46.366 1.03.54 1.691.54v-.524c-.566 0-1.014-.148-1.364-.426l-.327.41Zm8.667-.538.235-.117-.235.117Zm1.632-7.258.137.224-.137-.224Zm4.921 0-.137.224.137-.224Zm1.632 7.258-.235-.117.235.117Zm-1.632 1.808.138.224-.138-.224Zm-.94-1.475-.164-.204.164.204Zm.888-1.286-.247-.09v.002l.247.088Zm0-3.53-.248.087.001.003.247-.09Zm-.888-1.3-.166.204.166-.204Zm-3.041 0-.165-.204h-.001l.166.204Zm-.895 1.3-.247-.09.247.09Zm0 3.53-.247.089v.002l.247-.09Zm.895 1.286-.165.205h.001l.163-.205Zm1.52 1.859c-.898 0-1.67-.205-2.323-.607l-.275.447c.748.46 1.617.685 2.598.685v-.525Zm-2.323-.607a4.094 4.094 0 0 1-1.534-1.702l-.47.235a4.618 4.618 0 0 0 1.73 1.914l.274-.447Zm-1.534-1.702c-.366-.732-.553-1.595-.553-2.598H26.4c0 1.069.2 2.015.609 2.833l.47-.235Zm-.553-2.598c0-1.007.187-1.875.553-2.611l-.47-.234c-.409.822-.609 1.772-.609 2.845h.526Zm.553-2.611c.367-.738.878-1.304 1.534-1.708l-.275-.447c-.745.458-1.321 1.1-1.73 1.921l.47.234Zm1.534-1.708c.654-.402 1.425-.607 2.323-.607v-.525c-.981 0-1.85.225-2.598.685l.275.447Zm2.323-.607c.899 0 1.67.205 2.324.607l.275-.447c-.748-.46-1.617-.685-2.599-.685v.525Zm2.324.607c.656.404 1.167.97 1.534 1.708l.47-.234c-.408-.82-.985-1.463-1.73-1.921l-.274.447Zm1.534 1.708c.366.736.553 1.604.553 2.611h.525c0-1.073-.2-2.023-.608-2.845l-.47.234Zm.553 2.611c0 1.003-.187 1.866-.553 2.598l.47.235c.408-.818.608-1.764.608-2.833h-.525Zm-.553 2.598a4.094 4.094 0 0 1-1.535 1.702l.276.447a4.618 4.618 0 0 0 1.729-1.914l-.47-.235Zm-1.535 1.702c-.653.402-1.424.607-2.323.607v.525c.982 0 1.85-.225 2.599-.685l-.276-.447Zm-2.316-.506c.657 0 1.223-.175 1.679-.541l-.33-.41c-.345.278-.788.426-1.35.426v.525Zm1.679-.541c.442-.356.764-.826.97-1.402l-.494-.177c-.177.495-.447.881-.805 1.17l.329.409Zm.97-1.4c.207-.568.31-1.189.31-1.86h-.526a4.86 4.86 0 0 1-.278 1.68l.493.18Zm.31-1.86c0-.666-.103-1.284-.31-1.852l-.494.18a4.84 4.84 0 0 1 .278 1.673h.525Zm-.31-1.85c-.206-.58-.527-1.054-.969-1.414l-.332.407c.36.293.63.684.806 1.183l.495-.175Zm-.969-1.414c-.455-.371-1.022-.549-1.68-.549v.525c.56 0 1.003.15 1.348.431l.332-.407Zm-1.68-.549c-.662 0-1.233.178-1.692.548l.33.409c.35-.282.797-.432 1.362-.432V4.62Zm-1.693.549c-.441.36-.765.834-.976 1.413l.494.179c.182-.5.454-.892.813-1.185l-.331-.407Zm-.976 1.414a5.46 5.46 0 0 0-.302 1.85h.525c0-.613.091-1.17.272-1.673l-.495-.177Zm-.302 1.85c0 .67.1 1.29.302 1.858l.495-.177a4.958 4.958 0 0 1-.272-1.68h-.525Zm.303 1.86c.21.575.534 1.045.976 1.4l.33-.41c-.36-.288-.632-.675-.813-1.17l-.493.18Zm.977 1.4c.46.366 1.03.54 1.69.54v-.524c-.565 0-1.013-.148-1.363-.426l-.327.41Zm10.331-1.686-.263.001.004.63.445-.446-.186-.185Zm-.013-2.383v-.262h-.264l.001.264.263-.002Zm.34 0v.263h.113l.078-.083-.192-.18Zm3.994-4.242v-.263h-.114l-.077.083.19.18Zm2.337 0 .19.18.418-.443h-.608v.263Zm-4.556 4.83v.262h.113l.078-.082-.191-.18Zm-.307 0v-.263h-.109l-.077.077.186.186Zm-3.59 5.195h-.263v.263h.263v-.263Zm0-13.367v-.263h-.263V.04h.263Zm1.952 0h.262v-.263h-.262V.04Zm0 13.367v.263h.262v-.263h-.262Zm4.38 0-.21.158.078.105h.131v-.263Zm-3.59-4.764-.188-.185-.159.162.137.18.21-.157Zm1.344-1.365.21-.158-.184-.242-.213.216.187.184Zm4.64 6.13v.262h.529l-.319-.421-.21.158Zm-6.668-3.403-.014-2.382-.525.003.013 2.382.526-.003Zm-.276-2.118h.34V7.36h-.34v.525Zm.53-.083 3.995-4.242-.382-.36-3.995 4.242.383.36Zm3.804-4.16h2.337v-.525h-2.337v.525Zm2.146-.442-4.556 4.83.382.36 4.556-4.83-.382-.36Zm-4.365 4.747h-.307v.525h.307v-.525Zm-.493.077L39.797 9.82l.372.371 1.795-1.795-.372-.371Zm-3.141 5.381V.04h-.526v13.367h.526ZM38.188.301h1.952v-.525h-1.952v.525Zm1.69-.262v13.367h.524V.04h-.525Zm.262 13.105h-1.952v.525h1.952v-.525Zm4.589.104-3.59-4.765-.42.316 3.59 4.765.42-.316Zm-3.613-4.422 1.345-1.364-.374-.369-1.345 1.364.374.369Zm.949-1.39 4.64 6.129.42-.317-4.642-6.13-.418.318Zm4.85 5.708h-2.396v.525h2.396v-.525Zm9.017-7.316.046.259.278-.05-.07-.274-.254.065Zm-1.769.314-.25.081.071.217.225-.04-.046-.258Zm-.352-.647-.209.16.002.003.207-.163Zm-.64-.502.114-.236-.114.236Zm-2.395.176.144.22.002-.002-.146-.218Zm1.018 2.258-.06.256h.001l.059-.256Zm1.592.366.06-.256-.06.256Zm2.063.986-.184.187.184-.187Zm.157 3.335-.212-.156.212.156Zm-1.443 1.096-.104-.24.104.24Zm-4.882-.32-.148.218.148-.217Zm-1.306-2.055-.04-.26-.266.04.048.266.258-.046Zm1.887-.288.255-.06-.056-.236-.239.037.04.26Zm.724 1.117-.149.216h.002l.147-.216Zm2.964-.027.15.216-.15-.216Zm.221-1.775-.178.193.002.002.176-.195Zm-1.063-.483.058-.256h-.002l-.056.256Zm-1.697-.372-.059.256h.002l.056-.256Zm-2.076-1.018-.19.181.19-.181Zm-.17-3.322-.21-.157.21.157Zm1.37-1.038.104.241h.001l-.104-.241Zm4.563.326-.158.21h.001l.157-.21Zm1.188 1.615-1.769.313.092.517 1.769-.313-.092-.517Zm-1.473.49a2.357 2.357 0 0 0-.396-.727l-.413.325c.144.182.246.37.31.565l.499-.163Zm-.394-.724a2.004 2.004 0 0 0-.734-.58l-.228.473c.238.116.417.26.545.426l.417-.32Zm-.734-.58c-.315-.152-.695-.222-1.126-.222v.526c.379 0 .674.06.898.17l.228-.473Zm-1.126-.222c-.592 0-1.107.134-1.53.417l.293.436c.317-.213.724-.327 1.237-.327v-.526Zm-1.528.416c-.431.284-.673.676-.673 1.166h.525c0-.286.128-.524.437-.728l-.289-.438Zm-.673 1.166c0 .41.156.755.468 1.011l.334-.405a.736.736 0 0 1-.277-.606h-.525Zm.468 1.011c.294.243.741.422 1.307.556l.121-.511c-.539-.127-.893-.283-1.094-.45l-.334.405Zm1.309.556 1.593.366.117-.512-1.593-.365-.117.511Zm1.592.366c.897.207 1.533.52 1.938.917l.368-.375c-.5-.49-1.24-.835-2.188-1.054l-.118.512Zm1.938.917c.396.388.6.894.6 1.542h.525c0-.77-.248-1.418-.757-1.917l-.368.375Zm.6 1.542c0 .546-.157 1.026-.47 1.45l.421.312a2.89 2.89 0 0 0 .574-1.762h-.525Zm-.47 1.45c-.313.422-.754.761-1.336 1.011l.208.483c.653-.281 1.174-.673 1.55-1.182l-.423-.312Zm-1.336 1.011c-.575.249-1.25.377-2.03.377v.525c.837 0 1.586-.137 2.238-.42l-.208-.482Zm-2.03.377c-1.087 0-1.947-.232-2.601-.673l-.294.435c.764.516 1.736.763 2.895.763v-.525Zm-2.6-.672c-.648-.442-1.046-1.064-1.195-1.886l-.517.093c.173.953.645 1.702 1.416 2.227l.296-.434Zm-1.414-1.58 1.886-.287-.079-.52-1.886.288.079.52Zm1.591-.486c.13.546.405.977.831 1.272l.298-.433c-.304-.21-.513-.523-.618-.96l-.51.121Zm.833 1.273c.421.286.954.417 1.577.417v-.525c-.552 0-.973-.117-1.282-.327l-.295.435Zm1.577.417c.673 0 1.243-.14 1.683-.445l-.3-.431c-.324.225-.778.351-1.383.351v.525Zm1.685-.446c.436-.307.685-.709.685-1.2h-.525c0 .283-.133.539-.463.77l.303.43Zm.685-1.2c0-.389-.15-.722-.438-.984l-.353.389c.18.164.266.357.266.595h.526Zm-.436-.983c-.279-.257-.684-.432-1.184-.546l-.117.512c.457.104.761.25.944.42l.357-.386Zm-1.186-.546-1.697-.372-.113.513 1.697.372.113-.513Zm-1.695-.372c-.909-.207-1.546-.53-1.945-.944l-.378.364c.497.516 1.243.873 2.206 1.092l.117-.512Zm-1.944-.943c-.392-.412-.593-.934-.593-1.588h-.525c0 .773.242 1.43.738 1.95l.38-.362Zm-.593-1.588c0-.54.15-1.001.444-1.397l-.421-.313c-.367.492-.548 1.066-.548 1.71h.525Zm.444-1.397c.299-.401.716-.72 1.263-.953l-.206-.483c-.62.264-1.116.636-1.478 1.123l.42.313Zm1.264-.953c.545-.236 1.176-.357 1.9-.357v-.525c-.782 0-1.487.13-2.108.4l.208.482Zm1.9-.357c1.048 0 1.838.227 2.4.652l.316-.42c-.682-.515-1.598-.757-2.716-.757v.525Zm2.401.652c.572.428.95 1 1.137 1.728l.508-.13c-.214-.838-.658-1.515-1.33-2.018l-.315.42Z" mask="url(#a)"/></svg>