<svg xmlns="http://www.w3.org/2000/svg" width="38" height="38" fill="none"><path fill="#4656FF" d="M29.094 0H8.906A8.906 8.906 0 0 0 0 8.906v20.188A8.906 8.906 0 0 0 8.906 38h20.188A8.906 8.906 0 0 0 38 29.094V8.906A8.906 8.906 0 0 0 29.094 0Z"/><mask id="a" width="30" height="24" x="4" y="7" maskUnits="userSpaceOnUse" style="mask-type:luminance"><path fill="#fff" d="M4.156 7.57h29.688v22.998H4.156V7.57Z"/></mask><g mask="url(#a)"><path fill="#fff" d="M29.288 9.618a24.492 24.492 0 0 0-6.043-1.874.092.092 0 0 0-.097.046 17 17 0 0 0-.752 1.545 22.595 22.595 0 0 0-6.787 0 15.635 15.635 0 0 0-.765-1.545.095.095 0 0 0-.097-.046 24.43 24.43 0 0 0-6.043 1.874.09.09 0 0 0-.04.034C4.817 15.402 3.763 21.011 4.28 26.55a.104.104 0 0 0 .039.07 24.612 24.612 0 0 0 7.412 3.746.096.096 0 0 0 .105-.034c.57-.78 1.08-1.602 1.516-2.466a.094.094 0 0 0-.051-.131 16.215 16.215 0 0 1-2.316-1.104.096.096 0 0 1-.01-.158c.157-.116.31-.237.46-.36a.092.092 0 0 1 .096-.013c4.859 2.218 10.119 2.218 14.92 0a.092.092 0 0 1 .097.011c.151.125.305.245.461.362a.095.095 0 0 1-.008.158c-.74.432-1.515.8-2.317 1.103a.096.096 0 0 0-.06.093c0 .014.004.027.01.039.444.857.95 1.681 1.515 2.465a.095.095 0 0 0 .104.035 24.534 24.534 0 0 0 7.425-3.747.095.095 0 0 0 .039-.068c.619-6.404-1.037-11.967-4.39-16.898a.074.074 0 0 0-.038-.035ZM14.077 23.177c-1.463 0-2.668-1.343-2.668-2.992 0-1.65 1.182-2.992 2.668-2.992 1.498 0 2.691 1.354 2.668 2.992 0 1.65-1.182 2.992-2.668 2.992Zm9.864 0c-1.462 0-2.668-1.343-2.668-2.992 0-1.65 1.182-2.992 2.668-2.992 1.498 0 2.692 1.354 2.668 2.992 0 1.65-1.17 2.992-2.668 2.992Z"/></g></svg>