<svg xmlns="http://www.w3.org/2000/svg" width="300" height="127" fill="none"><g clip-path="url(#a)"><rect width="300" height="127" fill="#0F0050" rx="9.447"/><rect width="300" height="127" fill="url(#b)" rx="9.447"/><g clip-path="url(#c)" filter="url(#d)" shape-rendering="crispEdges"><path fill="url(#e)" d="M63.112 26.274a2 2 0 0 1 1.778 0l27.775 13.781c1.483.736 1.482 2.85-.002 3.584L64.888 57.384a2 2 0 0 1-1.774 0L35.338 43.639c-1.483-.733-1.484-2.848-.002-3.584l27.776-13.78ZM29.304 88.361a2 2 0 0 1-1.113-1.793V50.906a2 2 0 0 1 2.887-1.792L60.133 63.49a2 2 0 0 1 1.113 1.792v35.663a2 2 0 0 1-2.887 1.792L29.304 88.361Zm37.451-23.078a2 2 0 0 1 1.114-1.792l29.054-14.377a2 2 0 0 1 2.888 1.792v35.662a2 2 0 0 1-1.114 1.793l-29.055 14.377a2 2 0 0 1-2.886-1.792V65.283Z"/><path stroke="#fff" stroke-width="1.119" d="m64.641 26.776 27.776 13.78c1.067.53 1.067 2.053-.002 2.582L64.64 56.882c-.403.2-.875.2-1.278 0L35.587 43.138c-1.069-.529-1.07-2.052-.002-2.581l27.776-13.781c.403-.2.877-.2 1.28 0Zm-35.89 59.792V50.906a1.44 1.44 0 0 1 2.08-1.291l29.054 14.377c.491.243.802.744.802 1.291v35.663a1.44 1.44 0 0 1-2.08 1.291L29.553 87.859a1.44 1.44 0 0 1-.801-1.29Zm39.366-22.576 29.055-14.377a1.44 1.44 0 0 1 2.079 1.291v35.662a1.44 1.44 0 0 1-.802 1.291l-29.055 14.378a1.44 1.44 0 0 1-2.079-1.291V65.283c0-.547.31-1.048.802-1.29Z"/></g><g filter="url(#f)" style="mix-blend-mode:overlay"><path fill="#000" fill-opacity=".22" d="M0-35h300v168H0z"/></g><g filter="url(#g)"><path fill="#fff" d="M115.732 88.722h5.229l11.647-46.744h-5.229l1.109-4.278h20.915l-1.109 4.278h-5.229l-11.567 46.427h15.053l2.773-11.013h7.685L153.127 93h-38.504l1.109-4.278Zm67.195.475c1.901 0 3.644-.37 5.229-1.109a15.14 15.14 0 0 0 4.357-3.17c1.268-1.372 2.35-2.957 3.248-4.753.951-1.848 1.69-3.855 2.219-6.02.95-3.804 1.716-6.92 2.297-9.35.634-2.43 1.136-4.463 1.506-6.1.369-1.637.607-2.984.713-4.04.158-1.057.237-2.113.237-3.17 0-1.426-.211-2.746-.634-3.96-.369-1.216-.95-2.272-1.743-3.17-.792-.898-1.795-1.584-3.01-2.06-1.162-.528-2.562-.792-4.199-.792-1.902 0-3.671.396-5.308 1.188-1.585.74-3.011 1.796-4.279 3.17-1.267 1.32-2.376 2.904-3.327 4.753-.898 1.796-1.611 3.776-2.139 5.942a983.494 983.494 0 0 1-2.377 9.349 515.365 515.365 0 0 0-1.426 6.1c-.37 1.637-.634 2.984-.792 4.04a31.721 31.721 0 0 0-.159 3.17c0 2.799.766 5.176 2.298 7.13 1.584 1.901 4.014 2.852 7.289 2.852Zm-1.03 4.754c-6.074 0-10.749-1.796-14.023-5.388-3.222-3.644-4.833-8.556-4.833-14.736 0-2.482.264-5.097.792-7.843a48.53 48.53 0 0 1 2.535-8.319 47.869 47.869 0 0 1 4.279-7.922 31.875 31.875 0 0 1 6.1-6.656 27.424 27.424 0 0 1 7.764-4.595c2.905-1.162 6.127-1.743 9.666-1.743 6.021 0 10.669 1.823 13.944 5.467 3.274 3.592 4.912 8.477 4.912 14.657 0 2.482-.291 5.123-.872 7.923-.528 2.746-1.373 5.492-2.535 8.239a44.723 44.723 0 0 1-4.358 7.923 31.792 31.792 0 0 1-6.021 6.734c-2.271 1.901-4.859 3.433-7.764 4.595-2.905 1.11-6.1 1.664-9.586 1.664Zm49.952 0c-3.011 0-5.44-.502-7.289-1.506-1.796-1.056-2.879-2.43-3.248-4.12h-.793L219.41 93h-7.685l4.041-16.162h7.685l-.951 3.724a16.92 16.92 0 0 1-.317 1.346c-.053.317-.079.66-.079 1.03 0 1.902.792 3.407 2.377 4.516 1.584 1.056 3.855 1.585 6.813 1.585 2.06 0 3.909-.29 5.546-.872 1.637-.58 3.037-1.373 4.199-2.377 1.162-1.056 2.034-2.244 2.615-3.565.633-1.373.95-2.825.95-4.357 0-1.902-.554-3.407-1.663-4.516-1.057-1.162-2.905-2.166-5.546-3.01l-3.328-1.03c-4.12-1.321-7.157-3.064-9.111-5.23-1.954-2.218-2.931-5.096-2.931-8.635 0-2.641.502-5.097 1.505-7.368a18.152 18.152 0 0 1 4.199-5.942c1.849-1.69 4.041-3.01 6.576-3.962 2.535-.95 5.334-1.426 8.398-1.426 3.01 0 5.334.555 6.972 1.664 1.637 1.056 2.561 2.324 2.773 3.803h.792l1.109-4.516h7.685l-3.961 15.925h-7.685l.95-3.724c.212-.898.317-1.664.317-2.298 0-2.007-.792-3.486-2.376-4.436-1.532-1.004-3.724-1.506-6.576-1.506-1.954 0-3.671.29-5.15.872-1.479.528-2.72 1.268-3.724 2.218-1.003.898-1.769 1.928-2.297 3.09a9.54 9.54 0 0 0-.713 3.645c0 .95.106 1.822.317 2.614.264.74.686 1.452 1.267 2.14.634.633 1.453 1.24 2.456 1.821 1.057.528 2.351 1.03 3.883 1.506l3.169 1.03c4.278 1.373 7.315 3.116 9.111 5.228 1.795 2.113 2.693 4.833 2.693 8.16 0 2.8-.528 5.415-1.584 7.844-1.004 2.377-2.456 4.49-4.358 6.338-1.901 1.796-4.199 3.222-6.892 4.278-2.694 1.004-5.705 1.506-9.032 1.506Z"/></g></g><defs><filter id="d" width="81.419" height="86.682" x="23.291" y="25.642" color-interpolation-filters="sRGB" filterUnits="userSpaceOnUse"><feFlood flood-opacity="0" result="BackgroundImageFix"/><feColorMatrix in="SourceAlpha" result="hardAlpha" values="0 0 0 0 0 0 0 0 0 0 0 0 0 0 0 0 0 0 127 0"/><feOffset dy="4.476"/><feGaussianBlur stdDeviation="2.45"/><feComposite in2="hardAlpha" operator="out"/><feColorMatrix values="0 0 0 0 0.117325 0 0 0 0 0.0650223 0 0 0 0 0.513333 0 0 0 0.19 0"/><feBlend in2="BackgroundImageFix" result="effect1_dropShadow_14_182"/><feBlend in="SourceGraphic" in2="effect1_dropShadow_14_182" result="shape"/></filter><filter id="f" width="335" height="203" x="-17.5" y="-52.5" color-interpolation-filters="sRGB" filterUnits="userSpaceOnUse"><feFlood flood-opacity="0" result="BackgroundImageFix"/><feBlend in="SourceGraphic" in2="BackgroundImageFix" result="shape"/><feGaussianBlur result="effect1_foregroundBlur_14_182" stdDeviation="8.75"/></filter><filter id="g" width="157.21" height="67.001" x="109.723" y="36.326" color-interpolation-filters="sRGB" filterUnits="userSpaceOnUse"><feFlood flood-opacity="0" result="BackgroundImageFix"/><feColorMatrix in="SourceAlpha" result="hardAlpha" values="0 0 0 0 0 0 0 0 0 0 0 0 0 0 0 0 0 0 127 0"/><feOffset dy="4.476"/><feGaussianBlur stdDeviation="2.45"/><feComposite in2="hardAlpha" operator="out"/><feColorMatrix values="0 0 0 0 0.117325 0 0 0 0 0.0650223 0 0 0 0 0.513333 0 0 0 0.19 0"/><feBlend in2="BackgroundImageFix" result="effect1_dropShadow_14_182"/><feBlend in="SourceGraphic" in2="effect1_dropShadow_14_182" result="shape"/></filter><linearGradient id="b" x1="150" x2="150" y1="-139.586" y2="115.559" gradientUnits="userSpaceOnUse"><stop stop-color="#fff"/><stop offset="1" stop-color="#6854DB"/></linearGradient><linearGradient id="e" x1="80.5" x2="152" y1="72.5" y2="140.5" gradientUnits="userSpaceOnUse"><stop stop-color="#fff"/><stop offset="1" stop-color="#fff" stop-opacity="0"/></linearGradient><clipPath id="a"><rect width="300" height="127" fill="#fff" rx="9.447"/></clipPath><clipPath id="c"><path fill="#fff" d="M17 18h94v94H17z"/></clipPath></defs></svg>