<svg xmlns="http://www.w3.org/2000/svg" width="69" height="24" fill="none"><path stroke="#000" stroke-linecap="round" stroke-linejoin="round" stroke-width="1.627" d="M23.878 12.274c0-6.215-5.038-11.253-11.253-11.253-5.044 0-9.313 3.318-10.743 7.892-.091.293-.137.439-.133.622.004.15.05.333.115.467.081.164.207.29.457.54l12.036 12.035c.25.25.376.376.54.457.134.066.318.111.467.115.183.004.33-.041.622-.133 4.573-1.43 7.892-5.698 7.892-10.742Z"/><path stroke="#000" stroke-linecap="round" stroke-linejoin="round" stroke-width="1.627" d="M3.241 9.623c.267-.02.538-.029.81-.029 6.215 0 11.253 5.038 11.253 11.253 0 .273-.01.543-.029.81-.033.468-.05.701-.186.846a.591.591 0 0 1-.46.171c-.197-.02-.377-.2-.736-.558l-11.11-11.11c-.36-.36-.54-.54-.559-.737a.591.591 0 0 1 .172-.46c.144-.136.378-.153.845-.186Z"/><mask id="a" width="41" height="13" x="26.807" y="6.481" fill="#000" maskUnits="userSpaceOnUse"><path fill="#fff" d="M26.807 6.481h41v13h-41z"/><path d="M31.524 7.625c1.156 0 2.166.223 3.03.671a4.632 4.632 0 0 1 2.015 1.906c.48.823.719 1.786.719 2.89 0 1.103-.24 2.062-.719 2.874-.468.812-1.14 1.437-2.015 1.874-.864.427-1.874.64-3.03.64h-3.546V7.626h3.546Zm0 9.403c1.27 0 2.244-.344 2.921-1.03.677-.688 1.015-1.657 1.015-2.906 0-1.26-.338-2.244-1.015-2.953-.677-.708-1.65-1.062-2.921-1.062h-1.765v7.951h1.765Zm15.323-7.154v8.607h-1.78v-1.016a2.94 2.94 0 0 1-1.11.844 3.517 3.517 0 0 1-1.437.297c-.676 0-1.286-.14-1.827-.422a3.108 3.108 0 0 1-1.265-1.25c-.302-.552-.453-1.218-.453-2v-5.06h1.765v4.795c0 .771.192 1.364.578 1.781.385.406.91.61 1.577.61.667 0 1.193-.204 1.578-.61.396-.416.594-1.01.594-1.78V9.873h1.78Zm6.692-.14c.677 0 1.281.14 1.812.421.542.281.964.698 1.266 1.25.302.552.453 1.218.453 2v5.076h-1.766V13.67c0-.771-.192-1.36-.578-1.765-.385-.417-.91-.625-1.577-.625-.667 0-1.198.208-1.593.625-.386.406-.578.994-.578 1.765v4.81h-1.781V9.875h1.78v.984a2.96 2.96 0 0 1 1.11-.828 3.626 3.626 0 0 1 1.452-.297Zm13.69 4.232c0 .323-.02.615-.062.875H60.59c.053.688.308 1.24.766 1.656.458.416 1.02.625 1.687.625.958 0 1.635-.401 2.03-1.203h1.922a3.902 3.902 0 0 1-1.422 1.953c-.676.5-1.52.75-2.53.75-.823 0-1.562-.183-2.218-.547a4.087 4.087 0 0 1-1.531-1.562c-.364-.677-.547-1.458-.547-2.344 0-.885.177-1.66.531-2.327a3.843 3.843 0 0 1 1.516-1.562c.656-.364 1.405-.547 2.249-.547.812 0 1.536.177 2.171.531a3.74 3.74 0 0 1 1.484 1.5c.354.635.531 1.37.531 2.202Zm-1.859-.562c-.01-.656-.244-1.182-.703-1.578-.458-.395-1.025-.593-1.702-.593a2.27 2.27 0 0 0-1.578.593c-.437.386-.698.912-.78 1.578h4.763Z"/></mask><path fill="#000" d="M31.524 7.625c1.156 0 2.166.223 3.03.671a4.632 4.632 0 0 1 2.015 1.906c.48.823.719 1.786.719 2.89 0 1.103-.24 2.062-.719 2.874-.468.812-1.14 1.437-2.015 1.874-.864.427-1.874.64-3.03.64h-3.546V7.626h3.546Zm0 9.403c1.27 0 2.244-.344 2.921-1.03.677-.688 1.015-1.657 1.015-2.906 0-1.26-.338-2.244-1.015-2.953-.677-.708-1.65-1.062-2.921-1.062h-1.765v7.951h1.765Zm15.323-7.154v8.607h-1.78v-1.016a2.94 2.94 0 0 1-1.11.844 3.517 3.517 0 0 1-1.437.297c-.676 0-1.286-.14-1.827-.422a3.108 3.108 0 0 1-1.265-1.25c-.302-.552-.453-1.218-.453-2v-5.06h1.765v4.795c0 .771.192 1.364.578 1.781.385.406.91.61 1.577.61.667 0 1.193-.204 1.578-.61.396-.416.594-1.01.594-1.78V9.873h1.78Zm6.692-.14c.677 0 1.281.14 1.812.421.542.281.964.698 1.266 1.25.302.552.453 1.218.453 2v5.076h-1.766V13.67c0-.771-.192-1.36-.578-1.765-.385-.417-.91-.625-1.577-.625-.667 0-1.198.208-1.593.625-.386.406-.578.994-.578 1.765v4.81h-1.781V9.875h1.78v.984a2.96 2.96 0 0 1 1.11-.828 3.626 3.626 0 0 1 1.452-.297Zm13.69 4.232c0 .323-.02.615-.062.875H60.59c.053.688.308 1.24.766 1.656.458.416 1.02.625 1.687.625.958 0 1.635-.401 2.03-1.203h1.922a3.902 3.902 0 0 1-1.422 1.953c-.676.5-1.52.75-2.53.75-.823 0-1.562-.183-2.218-.547a4.087 4.087 0 0 1-1.531-1.562c-.364-.677-.547-1.458-.547-2.344 0-.885.177-1.66.531-2.327a3.843 3.843 0 0 1 1.516-1.562c.656-.364 1.405-.547 2.249-.547.812 0 1.536.177 2.171.531a3.74 3.74 0 0 1 1.484 1.5c.354.635.531 1.37.531 2.202Zm-1.859-.562c-.01-.656-.244-1.182-.703-1.578-.458-.395-1.025-.593-1.702-.593a2.27 2.27 0 0 0-1.578.593c-.437.386-.698.912-.78 1.578h4.763Z"/><path fill="#000" d="m34.554 8.296-.15.29.005.001.145-.29Zm2.015 1.906-.283.16.002.004.281-.164Zm0 5.764-.28-.165-.002.002.282.163Zm-2.015 1.874.145.292-.145-.292Zm-6.576.64h-.325v.326h.325v-.325Zm0-10.855v-.326h-.325v.326h.325Zm6.467 8.372-.232-.228.232.228Zm-4.686-6.92v-.325h-.326v.325h.326Zm0 7.951h-.326v.325h.326v-.325Zm1.765-9.078c1.114 0 2.07.215 2.88.635l.3-.578c-.919-.476-1.982-.708-3.18-.708v.651Zm2.885.637c.818.41 1.44 1 1.877 1.774l.567-.319A4.957 4.957 0 0 0 34.7 8.005l-.291.582Zm1.88 1.779c.445.765.673 1.67.673 2.726h.651c0-1.152-.25-2.174-.762-3.054l-.563.328Zm.673 2.726c0 1.055-.228 1.954-.673 2.708l.56.331c.514-.87.764-1.887.764-3.04h-.65Zm-.675 2.711c-.435.755-1.058 1.336-1.878 1.746l.29.582a5.003 5.003 0 0 0 2.152-2.003l-.563-.325Zm-1.877 1.745c-.811.401-1.77.607-2.886.607v.651c1.196 0 2.257-.22 3.175-.674l-.289-.584Zm-2.886.607h-3.546v.651h3.546v-.65Zm-3.22.326V7.625h-.651V18.48h.65ZM27.978 7.95h3.546V7.3h-3.546v.65Zm3.546 9.403c1.329 0 2.397-.36 3.153-1.128l-.464-.456c-.598.607-1.477.934-2.689.934v.65Zm3.153-1.128c.753-.764 1.109-1.825 1.109-3.133h-.651c0 1.19-.321 2.067-.922 2.677l.464.456Zm1.109-3.133c0-1.32-.356-2.393-1.106-3.177l-.47.45c.604.631.925 1.525.925 2.727h.65ZM34.68 9.915c-.755-.79-1.824-1.163-3.156-1.163v.65c1.21 0 2.087.336 2.686.962l.47-.45Zm-3.156-1.163h-1.765v.65h1.765v-.65Zm-2.09.325v7.951h.65v-7.95h-.65Zm.325 8.276h1.765v-.65h-1.765v.65Zm17.088-7.48h.326v-.325h-.326v.326Zm0 8.608v.325h.326v-.325h-.326Zm-1.78 0h-.326v.325h.326v-.325Zm0-1.016h.325v-.933l-.58.731.255.202Zm-1.11.844.132.298.003-.002-.134-.296Zm-3.264-.125-.152.287.002.002.15-.29Zm-1.265-1.25-.286.156.002.005.284-.16Zm-.453-7.06v-.326h-.326v.326h.326Zm1.765 0h.325v-.326h-.325v.326Zm.578 6.576-.24.221.004.003.236-.224Zm3.155 0-.236-.224.236.224Zm.594-6.576v-.326h-.326v.326h.326Zm1.455 0v8.607h.65V9.874h-.65Zm.325 8.281h-1.78v.651h1.78v-.65Zm-1.455.326v-1.016h-.65v1.016h.65Zm-.58-1.218a2.61 2.61 0 0 1-.99.75l.27.592c.5-.227.913-.538 1.23-.937l-.51-.405Zm-.986.748a3.19 3.19 0 0 1-1.306.27v.65a3.84 3.84 0 0 0 1.57-.325l-.264-.595Zm-1.306.27c-.63 0-1.187-.131-1.677-.386l-.3.578c.593.308 1.254.458 1.977.458v-.65Zm-1.675-.385a2.783 2.783 0 0 1-1.134-1.122l-.567.32a3.434 3.434 0 0 0 1.397 1.377l.304-.575Zm-1.132-1.118c-.27-.494-.413-1.104-.413-1.843h-.65c0 .822.158 1.545.492 2.155l.571-.312Zm-.413-1.843V9.874h-.65v5.06h.65Zm-.325-4.736h1.765v-.65h-1.765v.65Zm1.44-.325v4.795h.65V9.874h-.65Zm0 4.795c0 .823.206 1.507.664 2.002l.478-.442c-.313-.337-.492-.841-.492-1.56h-.65Zm.667 2.005c.458.483 1.076.71 1.813.71v-.65c-.595 0-1.029-.179-1.341-.508l-.472.448Zm1.813.71c.738 0 1.356-.227 1.814-.71l-.472-.448c-.312.33-.746.508-1.342.508v.65Zm1.814-.71c.47-.495.683-1.18.683-2.005h-.65c0 .717-.184 1.22-.505 1.557l.472.448Zm.683-2.005V9.874h-.65v4.795h.65Zm-.325-4.47h1.78v-.65h-1.78v.65Zm10.284-.044-.152.288h.002l.15-.288Zm1.266 1.25-.286.156.285-.156Zm.453 7.076v.325h.325v-.325h-.326Zm-1.766 0h-.325v.325h.325v-.325Zm-.578-6.577-.239.222.003.003.236-.224Zm-3.17 0-.236-.224.236.225Zm-.578 6.577v.325h.325v-.325h-.325Zm-1.781 0h-.326v.325h.326v-.325Zm0-8.607v-.326h-.326v.326h.326Zm1.78 0h.326v-.326h-.325v.326Zm0 .984h-.325v.907l.577-.7-.252-.207Zm1.11-.828-.13-.299-.002.001.132.298Zm1.452.029c.63 0 1.181.13 1.66.384l.305-.576c-.584-.309-1.242-.46-1.965-.46v.652Zm1.662.385c.483.25.858.62 1.13 1.117l.571-.313a3.314 3.314 0 0 0-1.4-1.382l-.3.578Zm1.13 1.117c.27.494.413 1.104.413 1.843h.65c0-.822-.158-1.546-.492-2.155l-.571.312Zm.413 1.843v5.077h.65v-5.077h-.65Zm.325 4.751h-1.765v.651h1.765v-.65Zm-1.44.326V13.67h-.65v4.81h.65Zm0-4.811c0-.822-.205-1.503-.666-1.99l-.473.449c.31.325.489.822.489 1.54h.65Zm-.664-1.986c-.457-.495-1.076-.73-1.816-.73v.651c.593 0 1.026.182 1.338.52l.478-.441Zm-1.816-.73c-.74 0-1.362.235-1.83.726l.472.449c.325-.342.765-.524 1.358-.524v-.65Zm-1.83.727c-.46.486-.667 1.167-.667 1.989h.651c0-.72.18-1.216.489-1.541l-.473-.448Zm-.667 1.989v4.81h.651v-4.81h-.65Zm.325 4.485h-1.78v.651h1.78v-.65Zm-1.455.326V9.874h-.65v8.607h.65Zm-.325-8.282h1.78v-.65h-1.78v.65Zm1.455-.325v.984h.651v-.984h-.65Zm.577 1.19c.257-.311.584-.557.99-.736l-.264-.596a3.286 3.286 0 0 0-1.229.92l.503.413Zm.987-.735a3.3 3.3 0 0 1 1.323-.27v-.651a3.95 3.95 0 0 0-1.581.323l.258.598Zm14.95 4.512v.326h.278l.044-.274-.321-.052Zm-6.575 0v-.325h-.352l.027.35.325-.025Zm.765 1.656-.219.24.219-.24Zm3.717-.578v-.325h-.202l-.09.181.292.144Zm1.922 0 .309.102.14-.427h-.45v.325Zm-1.422 1.953.194.261-.194-.261Zm-4.748.203-.164.281.006.003.158-.284Zm-1.531-1.562-.287.154.003.005.284-.16Zm-.016-4.67-.286-.155-.001.001.287.153Zm1.516-1.563-.158-.284h-.002l.16.284Zm4.42-.016.159-.284-.159.284Zm1.484 1.5-.285.156v.002l.285-.158Zm-1.328 1.64v.325h.331l-.005-.33-.326.005Zm-.703-1.578.213-.246-.213.246Zm-3.28 0 .215.245.004-.003-.219-.242Zm-.78 1.578-.324-.04-.046.365h.37v-.325Zm6.297.562c0 .31-.02.584-.059.824l.643.103c.045-.281.067-.59.067-.927h-.651Zm.263.55H60.59v.65h6.577v-.65Zm-6.901.35c.058.76.344 1.393.871 1.872l.438-.482c-.39-.354-.613-.825-.66-1.44l-.649.05Zm.871 1.872c.523.475 1.165.71 1.906.71v-.652c-.592 0-1.075-.182-1.468-.54l-.438.482Zm1.906.71c.525 0 .993-.11 1.392-.347.4-.237.709-.588.93-1.038l-.583-.288c-.174.352-.402.602-.679.766-.278.165-.627.255-1.06.255v.651Zm2.03-1.204h1.922v-.65h-1.922v.65Zm1.613-.427a3.577 3.577 0 0 1-1.307 1.793l.388.523a4.229 4.229 0 0 0 1.537-2.112l-.618-.204ZM65.38 17.61c-.61.45-1.382.686-2.337.686v.65c1.065 0 1.98-.264 2.724-.813l-.387-.523Zm-2.337.686c-.773 0-1.457-.17-2.06-.506l-.316.57c.709.393 1.503.587 2.376.587v-.651Zm-2.055-.503a3.762 3.762 0 0 1-1.41-1.44l-.568.32a4.42 4.42 0 0 0 1.651 1.683l.327-.563Zm-1.407-1.435c-.336-.623-.508-1.349-.508-2.189h-.651c0 .931.192 1.767.586 2.498l.572-.309Zm-.508-2.189c0-.84.168-1.562.493-2.174l-.575-.306c-.383.721-.57 1.551-.57 2.48h.652Zm.492-2.173c.336-.625.799-1.1 1.389-1.433l-.32-.566a4.168 4.168 0 0 0-1.642 1.69l.573.31Zm1.387-1.431c.602-.335 1.296-.506 2.09-.506v-.651c-.89 0-1.696.193-2.407.588l.317.569Zm2.09-.506c.764 0 1.432.166 2.014.49l.317-.569c-.69-.384-1.469-.572-2.33-.572v.65Zm2.014.49c.58.324 1.032.779 1.357 1.371l.57-.313a4.065 4.065 0 0 0-1.61-1.627l-.317.569Zm1.358 1.373c.323.58.49 1.259.49 2.044h.65c0-.88-.187-1.67-.572-2.36l-.568.316Zm-.718 1.477c-.012-.74-.281-1.357-.816-1.819l-.425.493c.381.33.58.764.59 1.336l.65-.01Zm-.816-1.819c-.524-.453-1.17-.672-1.915-.672v.65c.608 0 1.098.176 1.49.515l.425-.493Zm-1.915-.672c-.692 0-1.296.225-1.796.677l.437.483c.374-.34.821-.51 1.359-.51v-.65Zm-1.793.674c-.506.446-.797 1.05-.889 1.782l.646.08c.075-.6.304-1.049.673-1.373l-.43-.489Zm-.566 2.147h4.764v-.65h-4.764v.65Z" mask="url(#a)"/></svg>